<?xml version="1.0" standalone="no"?>
<!DOCTYPE svg PUBLIC "-//W3C//DTD SVG 20010904//EN"
 "http://www.w3.org/TR/2001/REC-SVG-20010904/DTD/svg10.dtd">
<svg version="1.0" xmlns="http://www.w3.org/2000/svg"
 width="200.000000pt" height="126.000000pt" viewBox="0 0 200.000000 126.000000"
 preserveAspectRatio="xMidYMid meet">

<g transform="translate(0.000000,126.000000) scale(0.100000,-0.100000)"
fill="#000000" stroke="none">
<path d="M987 1212 c-10 -10 -17 -23 -17 -28 0 -4 7 2 16 14 18 26 27 27 48 6
9 -8 16 -11 16 -5 0 9 -31 31 -43 31 -2 0 -11 -8 -20 -18z"/>
<path d="M797 1168 c-32 -17 -56 -36 -54 -42 5 -14 47 -21 47 -7 0 5 15 13 33
17 17 4 26 9 20 11 -7 3 -27 -3 -44 -11 -18 -9 -36 -16 -42 -16 -20 0 14 27
63 50 l50 24 33 -23 32 -22 -28 25 c-15 14 -33 26 -40 26 -7 0 -38 -15 -70
-32z"/>
<path d="M1051 1164 c0 -11 3 -14 6 -6 3 7 2 16 -1 19 -3 4 -6 -2 -5 -13z"/>
<path d="M878 1129 c10 -14 2 -26 -57 -82 -44 -41 -71 -75 -74 -91 -1 -14 -27
-59 -57 -98 -30 -40 -58 -79 -63 -85 -5 -7 -7 -13 -4 -13 3 0 20 20 37 46 18
25 37 43 43 41 26 -8 18 -41 -20 -81 -21 -23 -6 -9 33 31 40 40 75 73 78 73 9
0 66 -30 66 -34 0 -2 -23 -19 -51 -36 -41 -27 -49 -37 -45 -54 3 -12 6 -29 6
-38 0 -11 8 -18 19 -18 14 0 20 9 23 35 3 28 0 35 -17 37 -16 3 -9 10 33 39
40 27 49 38 37 43 -13 4 -14 10 -5 26 13 25 27 25 54 3 12 -10 3 2 -19 25
l-40 43 30 25 c17 13 42 30 57 36 15 7 29 21 32 33 5 17 8 18 17 5 8 -12 9 -9
4 10 -12 41 -11 44 12 48 12 2 27 11 34 20 11 14 11 15 -1 5 -20 -18 -47 -16
-58 3 -7 12 -11 13 -17 5 -5 -9 -10 -9 -21 0 -10 8 -14 8 -14 0 0 -15 -33 -14
-50 2 -12 10 -12 9 -2 -4z m107 -19 c3 -6 -1 -13 -10 -16 -19 -8 -30 0 -20 15
8 14 22 14 30 1z"/>
<path d="M1066 1085 c5 -11 1 -14 -12 -9 -13 4 -15 3 -6 -3 7 -5 10 -18 7 -29
-4 -12 -1 -10 9 6 18 29 20 50 6 50 -5 0 -7 -7 -4 -15z"/>
<path d="M1006 1007 c3 -10 9 -15 12 -12 3 3 0 11 -7 18 -10 9 -11 8 -5 -6z"/>
<path d="M910 800 c-8 -5 -10 -10 -5 -10 6 0 17 5 25 10 8 5 11 10 5 10 -5 0
-17 -5 -25 -10z"/>
<path d="M589 719 c-28 -40 -17 -93 21 -96 23 -2 23 -2 5 6 l-20 10 20 1 c11
1 14 4 8 7 -18 7 -16 23 5 47 17 21 17 21 -6 2 -30 -26 -41 -12 -20 25 22 38
15 37 -13 -2z"/>
<path d="M788 673 c7 -3 16 -2 19 1 4 3 -2 6 -13 5 -11 0 -14 -3 -6 -6z"/>
<path d="M1448 383 c-33 -5 -37 -18 -8 -26 15 -4 20 -14 20 -40 0 -31 -2 -34
-25 -29 -33 6 -83 -15 -96 -41 -33 -60 -27 -137 11 -157 28 -15 71 -12 92 7
10 9 18 11 18 5 0 -16 36 -33 54 -26 20 8 21 24 2 24 -22 0 -26 24 -26 161 0
71 -3 128 -7 128 -5 -1 -20 -4 -35 -6z m-6 -130 c13 -12 18 -31 18 -73 0 -55
-1 -58 -31 -70 -27 -12 -33 -11 -52 9 -17 17 -22 33 -21 71 0 27 6 56 13 64
17 21 50 20 73 -1z"/>
<path d="M1750 381 l-25 -7 23 -12 c21 -12 22 -18 22 -137 0 -118 -1 -125 -20
-125 -11 0 -20 -4 -20 -10 0 -5 25 -10 55 -10 30 0 55 5 55 10 0 6 -7 10 -15
10 -12 0 -15 25 -17 142 -3 154 -4 155 -58 139z"/>
<path d="M1878 383 c-22 -5 -24 -23 -3 -23 13 0 15 -21 15 -129 0 -124 -1
-129 -22 -137 -18 -6 -11 -8 31 -11 30 -2 59 1 64 6 8 8 4 11 -11 11 -22 0
-22 2 -22 145 0 156 1 152 -52 138z"/>
<path d="M1132 368 c-5 -7 -29 -62 -52 -123 -51 -133 -57 -145 -75 -145 -8 0
-15 -4 -15 -10 0 -5 25 -10 55 -10 30 0 55 5 55 10 0 6 -6 10 -14 10 -22 0
-27 15 -15 49 10 29 14 31 63 31 52 0 53 -1 64 -36 10 -32 9 -37 -9 -41 -39
-11 -17 -23 41 -23 55 0 83 14 44 22 -11 2 -32 47 -63 137 -26 74 -52 136 -57
138 -6 2 -16 -2 -22 -9z m35 -139 c5 -28 4 -29 -36 -29 -22 0 -41 2 -41 4 0 2
10 30 22 62 l22 58 14 -33 c7 -18 16 -46 19 -62z"/>
<path d="M1601 276 c-70 -39 -66 -165 7 -195 32 -13 75 -7 92 14 10 12 5 13
-23 8 -29 -4 -40 -1 -61 20 -14 15 -26 35 -26 47 0 18 6 20 61 20 l62 0 -6 37
c-10 59 -53 79 -106 49z m57 -18 c14 -14 16 -48 3 -48 -5 0 -23 -3 -40 -6 -36
-7 -41 7 -15 44 17 25 34 28 52 10z"/>
</g>
</svg>
